<?xml version="1.0" encoding="UTF-8"?>
<svg width="24px" height="24px" viewBox="0 0 24 24" version="1.1" xmlns="http://www.w3.org/2000/svg" xmlns:xlink="http://www.w3.org/1999/xlink">
    <title>assets/ico/capacity</title>
    <g id="assets/ico/capacity" stroke="none" stroke-width="1" fill="none" fill-rule="evenodd">
        <path d="M21.4956925,0.608304369 C21.1360692,0.216088413 20.6401758,0 20.0992191,0 L18.6125207,0 C17.5168624,0 16.4711764,0.893325286 16.2817924,1.99145004 L16.1880331,2.53451828 C16.093783,3.0809832 16.220628,3.59857639 16.5453002,3.99199118 C16.8699724,4.38540596 17.3489793,4.60199388 17.8942559,4.60199388 L19.8147014,4.60199388 C20.0811545,4.60199388 20.3388698,4.5478469 20.5783241,4.451741 L20.3742136,6.22610361 C20.1777609,6.14208587 19.9620654,6.0973297 19.7353741,6.0973297 L17.5442539,6.0973297 C16.6055811,6.0973297 15.6835983,6.85748538 15.4888146,7.79177056 L13.5515808,17.0853706 L4.41137551,16.417025 C3.91744569,16.3810602 3.50510117,16.5513934 3.24944757,16.8858659 C3.00999321,17.1991592 2.93999282,17.6194476 3.05220944,18.069407 L4.11488017,22.3270381 C4.34510586,23.2494349 5.29340007,24 6.22863671,24 L13.8912742,24 L14.0082033,24 L17.9086879,24 C18.8563931,24 19.7088663,23.2196641 19.8088107,22.2606032 L21.3081739,7.87658751 C21.3167154,7.79436801 21.3176971,7.71334735 21.3149482,7.6331259 L21.8281207,3.1726934 C21.9005756,2.98058151 21.9466207,2.77638146 21.9610528,2.56458884 L21.9950221,2.06807501 C22.0327222,1.51901263 21.8553158,1.00062023 21.4956925,0.608304369 Z" fill="#868585" fill-rule="nonzero"></path>
    </g>
</svg>