<?xml version="1.0" encoding="UTF-8"?>
<svg width="24px" height="24px" viewBox="0 0 24 24" version="1.1" xmlns="http://www.w3.org/2000/svg" xmlns:xlink="http://www.w3.org/1999/xlink">
    <title>assets/ico/acceleration</title>
    <g id="assets/ico/acceleration" stroke="none" stroke-width="1" fill="none" fill-rule="evenodd">
        <g id="Group" transform="translate(0.000000, 3.000000)" fill="#868585" fill-rule="nonzero">
            <path d="M12.4204146,12.7306348 C12.9611235,12.7306348 13.4004495,12.2847481 13.4004495,11.737973 C13.4004495,11.1923849 12.9611235,10.7496067 12.4204146,10.7496067 L7.98010015,7.4504743 L11.4403238,11.8016711 C11.4724395,12.3196209 11.8996242,12.7306348 12.4204146,12.7306348 Z" id="Path"></path>
            <rect id="Rectangle" x="7.10620402" y="15.6536828" width="9.78764792" height="2.34631725"></rect>
            <path d="M20.4852803,3.55047712 C18.2187118,1.26090602 15.2052556,0 12,0 C8.7946884,0 5.78117627,1.26090602 3.51466378,3.55047712 C1.24815129,5.84004823 0,8.88416214 0,12.1220833 C0,14.2127603 0.521405858,16.221992 1.50037767,18 L3.74322295,18 L5.38364557,17.0431719 L4.65919412,15.77554 L2.54984753,17.0058687 C1.80463832,15.5401905 1.38366422,13.8799137 1.38366422,12.1220833 C1.38366422,11.8109969 1.39765193,11.5031322 1.42344527,11.1986586 L3.93854733,11.6466366 L4.19015825,10.205149 L1.64545819,9.75191462 C2.10017065,7.72380531 3.1254138,5.91211131 4.5411938,4.49848809 L6.26531887,6.57418729 L7.37532755,5.63335437 L5.63810998,3.54199911 C7.23108629,2.33365675 9.17017447,1.56730126 11.2755486,1.42334467 L11.2755486,4.19944045 L12.7244514,4.19944045 L12.7244514,1.42334467 C14.8298255,1.5674143 16.7689137,2.33371327 18.361946,3.54205563 L16.6246725,5.63335437 L17.7346252,6.57418729 L19.4588062,4.49843157 C20.8745302,5.91211131 21.8997734,7.72380531 22.3544859,9.7518581 L19.8098418,10.2052055 L20.0615086,11.6465801 L22.5764428,11.1985456 C22.6022362,11.5030756 22.6162239,11.8108839 22.6162239,12.1219703 C22.6162239,13.8799137 22.1954176,15.540247 21.4500965,17.0058121 L19.340694,15.7755965 L18.6162985,17.0431719 L20.2566651,18 L22.4996223,18 C23.4786501,16.2218789 24,14.2126473 24,12.1219703 C24,8.88410562 22.7517368,5.83993519 20.4852803,3.55047712 Z" id="Path"></path>
        </g>
    </g>
</svg>