<?xml version="1.0" encoding="UTF-8"?>
<svg width="24px" height="24px" viewBox="0 0 24 24" version="1.1" xmlns="http://www.w3.org/2000/svg" xmlns:xlink="http://www.w3.org/1999/xlink">
    <title>assets/ico/power</title>
    <g id="assets/ico/power" stroke="none" stroke-width="1" fill="none" fill-rule="evenodd">
        <path d="M23.6818485,11.5656311 L20.9887347,9.49873352 C20.7451842,9.31184194 20.4190688,9.28013199 20.1449628,9.41822638 C19.8717507,9.55508852 19.6986568,9.83727426 19.6986568,10.1461588 L19.6986568,11.4108602 L18.9020184,11.4108602 L18.9020184,10.1326862 C18.9020184,9.68373564 18.5420156,9.31972836 18.0980662,9.31972836 L16.4974757,9.31972836 L16.4974757,6.30128565 C16.4974757,5.85225297 16.1373916,5.48832783 15.6934423,5.48832783 L13.1926821,5.48832783 L13.1926821,4.62558703 L13.8658793,4.62558703 C14.3099099,4.62558703 14.669994,4.26157975 14.669994,3.81271137 C14.669994,3.36384298 14.3099099,3 13.8658793,3 L8.67143646,3 C8.22748712,3 7.86740302,3.36384298 7.86740302,3.81271137 C7.86740302,4.26157975 8.22748712,4.62558703 8.67143646,4.62558703 L9.34512124,4.62558703 L9.34512124,5.48832783 L6.23674453,5.48832783 C5.79271394,5.48832783 5.43262983,5.85225297 5.43262983,6.30128565 L5.43262983,7.88785136 L3.86235106,7.88785136 C3.4182392,7.88785136 3.05823635,8.2517765 3.05823635,8.70064488 L3.05823635,10.5600312 L1.60798562,10.5600312 L1.60798562,8.25383025 C1.60798562,7.80496187 1.24798277,7.44103673 0.803952176,7.44103673 C0.35992158,7.44095458 0,7.80496187 0,8.2537481 L0,16.7554664 C0,17.2043348 0.35992158,17.5681778 0.80403344,17.5681778 C1.24806404,17.5681778 1.60806688,17.2042526 1.60806688,16.7554664 L1.60806688,14.4491833 L3.05839888,14.4491833 L3.05839888,16.3553131 C3.05839888,16.8042636 3.41840173,17.1681066 3.86251359,17.1681066 L5.88446184,17.1681066 L8.72117048,20.6996591 C8.87386695,20.8896724 9.10319607,21 9.34528377,21 L18.0982288,21 C18.5422594,21 18.9021809,20.6359106 18.9021809,20.1871243 L18.9021809,19.1131755 L19.6988193,19.1131755 L19.6988193,20.1871243 C19.6988193,20.5046346 19.8815837,20.7927352 20.1667417,20.9256541 C20.274255,20.9755193 20.3890008,21 20.5027715,21 C20.6912244,21 20.8773207,20.9328833 21.0261977,20.8041541 L23.7193928,18.4707614 C23.8976064,18.3161548 24,18.090817 24,17.8534852 L24,12.2128099 C24,11.958966 23.8820848,11.7192519 23.6818485,11.5656311 Z" fill="#868585" fill-rule="nonzero"></path>
    </g>
</svg>